<svg xmlns="http://www.w3.org/2000/svg" fill="#125175" width="20.009" height="14.001" viewBox="0 0 20.009 14.001"><path d="M.44 10.981c.511.418 1.263.34 1.678-.176v-.002l1.216-1.511 1.936 2.646a1.188 1.188 0 0 0 2.068-.276l1.841-4.739 2.667 6.343c.187.448.619.734 1.098.734.021 0 .044 0 .066-.002a1.193 1.193 0 0 0 1.075-.859l2.54-8.626 1.119 2.323a1.185 1.185 0 0 0 1.594.555 1.21 1.21 0 0 0 .551-1.609L17.429.677a1.189 1.189 0 0 0-2.216.183l-2.47 8.384-2.512-5.977a1.188 1.188 0 0 0-2.208.031L5.905 8.757 4.337 6.612a1.19 1.19 0 0 0-.932-.488 1.179 1.179 0 0 0-.953.445L.267 9.287a1.213 1.213 0 0 0 .173 1.694z"/></svg>