<svg xmlns="http://www.w3.org/2000/svg" fill="#fff" width="21" height="22" viewBox="0 0 21 22"><path d="M17.489 4.603a1.774 1.774 0 0 0-2.414.13 1.565 1.565 0 0 0 .139 2.29c1.456 1.237 2.367 3.017 2.367 5.015-.006 3.71-3.17 6.713-7.081 6.719-3.91-.006-7.075-3.009-7.081-6.719 0-2.007.92-3.794 2.389-5.031.707-.594.772-1.62.146-2.29a1.773 1.773 0 0 0-2.412-.138v-.001C1.374 6.397 0 9.072 0 12.037.001 17.539 4.701 21.998 10.5 22c5.799-.002 10.499-4.461 10.5-9.963 0-2.952-1.361-5.616-3.511-7.434zm-6.959 9.078c.944 0 1.709-.726 1.709-1.621V1.623C12.24.727 11.475 0 10.53 0S8.821.727 8.821 1.623V12.06c0 .895.765 1.621 1.709 1.621z"/></svg>