<svg xmlns="http://www.w3.org/2000/svg" fill="#fff" width="15.007" height="14.002" viewBox="0 0 15.007 14.002"><path d="M15.007 12.353s-.01-.975-1.881-1.863c-.904-.43-2.251-1.538-4.242-1.918.51-.584.896-1.493 1.292-2.572.229-.625.19-1.157.19-1.916 0-.561.099-1.46-.031-1.954C9.896.461 8.787 0 7.486 0 6.185 0 5.074.463 4.634 2.136c-.128.493-.03 1.39-.03 1.949 0 .76-.038 1.294.192 1.92.399 1.084.779 1.993 1.286 2.573-1.975.387-3.31 1.486-4.21 1.916C.009 11.381 0 12.353 0 12.353v1.649l15.007-.001v-1.648z"/></svg>