<svg xmlns="http://www.w3.org/2000/svg" fill="#125175" width="16" height="15.999" viewBox="0 0 16 15.999"><path d="M14.996 4.641L11.734 0H4.266L1.004 4.641H0v3.158h16V4.641h-1.004zM1.703 6.867H.972v-1.27h.731v1.27zm1.325 0h-.731v-1.27h.731v1.27zm1.326 0h-.732v-1.27h.731v1.27zm10.667-.235h-4.716V5.81h4.716v.822zM0 11.898h16V8.74H0v3.158zM10.305 9.91h4.716v.822h-4.716V9.91zm-6.683-.214h.731v1.271h-.731V9.696zm-1.325 0h.731v1.271h-.731V9.696zm-1.325 0h.731v1.271H.972V9.696zM0 15.999h16v-3.158H0v3.158zm10.305-1.989h4.716v.823h-4.716v-.823zm-6.683-.214h.731v1.271h-.731v-1.271zm-1.325 0h.731v1.271h-.731v-1.271zm-1.325 0h.731v1.271H.972v-1.271z"/></svg>