<?xml version="1.0" encoding="utf-8"?>
<!-- Generator: Adobe Illustrator 16.0.0, SVG Export Plug-In . SVG Version: 6.00 Build 0)  -->
<!DOCTYPE svg PUBLIC "-//W3C//DTD SVG 1.1//EN" "http://www.w3.org/Graphics/SVG/1.1/DTD/svg11.dtd">
<svg version="1.1" id="Layer_1" xmlns="http://www.w3.org/2000/svg" xmlns:xlink="http://www.w3.org/1999/xlink" x="0px" y="0px" fill="#125175" width="20.009px" height="14.001px" viewBox="0 0 20.009 14.001" enable-background="new 0 0 20.009 14.001" xml:space="preserve">
<path d="M0.44,10.981c0.511,0.418,1.263,0.34,1.678-0.176v-0.002l1.216-1.511l1.936,2.646c0.257,0.352,0.685,0.535,1.115,0.478
	c0.43-0.056,0.795-0.346,0.953-0.754l1.841-4.739l2.667,6.343c0.187,0.448,0.619,0.734,1.098,0.734c0.021,0,0.044,0,0.066-0.002
	c0.503-0.029,0.932-0.372,1.075-0.859l2.54-8.626l1.119,2.323c0.287,0.598,1.001,0.847,1.594,0.555
	c0.592-0.29,0.839-1.012,0.551-1.609l-2.46-5.105c-0.216-0.448-0.68-0.714-1.17-0.673c-0.492,0.041-0.905,0.379-1.046,0.856
	l-2.47,8.384l-2.512-5.977c-0.189-0.452-0.628-0.741-1.114-0.734C8.632,2.54,8.201,2.841,8.023,3.298L5.905,8.757L4.337,6.612
	c-0.221-0.3-0.562-0.479-0.932-0.488C3.034,6.115,2.685,6.278,2.452,6.569L0.267,9.287C-0.148,9.804-0.07,10.562,0.44,10.981z"/>
</svg>
