<?xml version="1.0" encoding="utf-8"?>
<!-- Generator: Adobe Illustrator 16.0.0, SVG Export Plug-In . SVG Version: 6.00 Build 0)  -->
<!DOCTYPE svg PUBLIC "-//W3C//DTD SVG 1.1//EN" "http://www.w3.org/Graphics/SVG/1.1/DTD/svg11.dtd">
<svg version="1.1" id="Layer_1" xmlns="http://www.w3.org/2000/svg" xmlns:xlink="http://www.w3.org/1999/xlink" x="0px" y="0px" fill="#125175" width="100px" height="100px" viewBox="0 0 100 100" enable-background="new 0 0 100 100" xml:space="preserve">
<g>
	<g>
		<path d="M54.5,49.5h-2v2h2V49.5z M54.5,52.5h-2v2h2V52.5z M46.5,44.5c0.552,0,1-0.448,1-1s-0.448-1-1-1s-1,0.448-1,1
			S45.948,44.5,46.5,44.5z M54.5,44.5c0.553,0,1-0.448,1-1s-0.447-1-1-1s-1,0.448-1,1S53.947,44.5,54.5,44.5z M48.5,49.5h-2v2h2
			V49.5z M56.5,42.5v3h-4v-3h-4v3h-4v-3c-1.104,0-2,0.896-2,2v12c0,1.104,0.896,2,2,2h12c1.104,0,2-0.896,2-2v-12
			C58.5,43.396,57.604,42.5,56.5,42.5z M56.5,56.5h-12v-9h12V56.5z M51.5,49.5h-2v2h2V49.5z M51.5,52.5h-2v2h2V52.5z M48.5,52.5h-2
			v2h2V52.5z"/>
	</g>
</g>
</svg>
