<?xml version="1.0" encoding="utf-8"?>
<!-- Generator: Adobe Illustrator 16.0.0, SVG Export Plug-In . SVG Version: 6.00 Build 0)  -->
<!DOCTYPE svg PUBLIC "-//W3C//DTD SVG 1.1//EN" "http://www.w3.org/Graphics/SVG/1.1/DTD/svg11.dtd">
<svg version="1.1" id="Layer_1" xmlns="http://www.w3.org/2000/svg" xmlns:xlink="http://www.w3.org/1999/xlink" x="0px" y="0px" fill="#125175"
	 width="18.006px" height="10.996px" viewBox="0 0 18.006 10.996" enable-background="new 0 0 18.006 10.996" xml:space="preserve">
<g>
	<g>
		<path d="M9.012,0C3.598,0,0,5.379,0,5.379v0.203c0,0,3.58,5.413,8.994,5.413s9.012-5.379,9.012-5.379V5.413
			C18.006,5.413,14.425,0,9.012,0z M8.978,8.863c-1.832,0-3.317-1.475-3.317-3.293s1.485-3.293,3.317-3.293s3.316,1.475,3.316,3.293
			S10.81,8.863,8.978,8.863z M8.978,4.042c-0.839,0-1.519,0.675-1.519,1.507s0.68,1.507,1.519,1.507
			c0.838,0,1.519-0.675,1.519-1.507S9.815,4.042,8.978,4.042z"/>
	</g>
</g>
</svg>
