<?xml version="1.0" encoding="utf-8"?>
<!-- Generator: Adobe Illustrator 16.0.0, SVG Export Plug-In . SVG Version: 6.00 Build 0)  -->
<!DOCTYPE svg PUBLIC "-//W3C//DTD SVG 1.1//EN" "http://www.w3.org/Graphics/SVG/1.1/DTD/svg11.dtd">
<svg version="1.1" id="Layer_1" xmlns="http://www.w3.org/2000/svg" xmlns:xlink="http://www.w3.org/1999/xlink" x="0px" y="0px" fill="#ffffff"
	 width="21px" height="22px" viewBox="0 0 21 22" enable-background="new 0 0 21 22" xml:space="preserve">
<g>
	<g>
		<path d="M17.489,4.603c-0.705-0.597-1.785-0.539-2.414,0.13c-0.628,0.668-0.566,1.693,0.139,2.29
			c1.456,1.237,2.367,3.017,2.367,5.015c-0.006,3.71-3.17,6.713-7.081,6.719c-3.91-0.006-7.075-3.009-7.081-6.719
			c0-2.007,0.92-3.794,2.389-5.031C6.515,6.413,6.58,5.387,5.954,4.717c-0.626-0.67-1.706-0.733-2.412-0.138l0-0.001
			C1.374,6.397,0,9.072,0,12.037C0.001,17.539,4.701,21.998,10.5,22c5.799-0.002,10.499-4.461,10.5-9.963
			C21,9.085,19.639,6.421,17.489,4.603z M10.53,13.681c0.944,0,1.709-0.726,1.709-1.621V1.623C12.24,0.727,11.475,0,10.53,0
			S8.821,0.727,8.821,1.623V12.06C8.821,12.955,9.586,13.681,10.53,13.681z"/>
	</g>
</g>
</svg>
