<?xml version="1.0" encoding="utf-8"?>
<!-- Generator: Adobe Illustrator 16.0.0, SVG Export Plug-In . SVG Version: 6.00 Build 0)  -->
<!DOCTYPE svg PUBLIC "-//W3C//DTD SVG 1.1//EN" "http://www.w3.org/Graphics/SVG/1.1/DTD/svg11.dtd">
<svg version="1.1" id="Layer_1" xmlns="http://www.w3.org/2000/svg" xmlns:xlink="http://www.w3.org/1999/xlink" x="0px" y="0px" fill="#ffffff"
	 width="15.007px" height="14.002px" viewBox="0 0 15.007 14.002" enable-background="new 0 0 15.007 14.002" xml:space="preserve">
<path d="M15.007,12.353c0,0-0.01-0.975-1.881-1.863c-0.904-0.43-2.251-1.538-4.242-1.918C9.394,7.988,9.78,7.079,10.176,6
	c0.229-0.625,0.19-1.157,0.19-1.916c0-0.561,0.099-1.46-0.031-1.954C9.896,0.461,8.787,0,7.486,0C6.185,0,5.074,0.463,4.634,2.136
	c-0.128,0.493-0.03,1.39-0.03,1.949c0,0.76-0.038,1.294,0.192,1.92c0.399,1.084,0.779,1.993,1.286,2.573
	c-1.975,0.387-3.31,1.486-4.21,1.916C0.009,11.381,0,12.353,0,12.353v1.649l15.007-0.001V12.353z"/>
</svg>
