<?xml version="1.0" encoding="utf-8"?>
<!-- Generator: Adobe Illustrator 16.0.0, SVG Export Plug-In . SVG Version: 6.00 Build 0)  -->
<!DOCTYPE svg PUBLIC "-//W3C//DTD SVG 1.1//EN" "http://www.w3.org/Graphics/SVG/1.1/DTD/svg11.dtd">
<svg version="1.1" id="Layer_1" xmlns="http://www.w3.org/2000/svg" xmlns:xlink="http://www.w3.org/1999/xlink" x="0px" y="0px" fill="#125175" width="16px" height="15.999px" viewBox="0 0 16 15.999" enable-background="new 0 0 16 15.999" xml:space="preserve">
<g>
	<g>
		<path d="M14.996,4.641L11.734,0H4.266L1.004,4.641H0v3.158h16V4.641H14.996z M1.703,6.867H0.972v-1.27h0.731V6.867z M3.028,6.867
			H2.297v-1.27h0.731V6.867z M4.354,6.867H3.622v-1.27h0.731V6.867z M15.021,6.632h-4.716V5.81h4.716V6.632z M0,11.898h16V8.74H0
			V11.898z M10.305,9.91h4.716v0.822h-4.716V9.91z M3.622,9.696h0.731v1.271H3.622V9.696z M2.297,9.696h0.731v1.271H2.297V9.696z
			 M0.972,9.696h0.731v1.271H0.972V9.696z M0,15.999h16v-3.158H0V15.999z M10.305,14.01h4.716v0.823h-4.716V14.01z M3.622,13.796
			h0.731v1.271H3.622V13.796z M2.297,13.796h0.731v1.271H2.297V13.796z M0.972,13.796h0.731v1.271H0.972V13.796z"/>
	</g>
</g>
</svg>
